{
  "source": "C:\\Users\\Peter\\Desktop\\stuff\\MIUN\\quantitative_research\\video_compression\\videos\\UVG\\YachtRide_1920x1080_120fps_420_8bit_YUV.y4m",
  "output": "C:\\Users\\Peter\\Desktop\\stuff\\MIUN\\quantitative_research\\video_compression\\compressed_videos\\UVG\\h264\\2.5\\YachtRide_1920x1080_120fps_420_8bit_YUV_h264.mp4",
  "codec": "h264",
  "ok": "[yuv4mpegpipe @ 00000244e4635ec0] Stream #0: not enough frames to estimate rate; consider increasing probesize\nInput #0, yuv4mpegpipe, from 'C:\\Users\\Peter\\Desktop\\stuff\\MIUN\\quantitative_research\\video_compression\\videos\\UVG\\YachtRide_1920x1080_120fps_420_8bit_YUV.y4m':\n  Duration: 00:00:05.00, start: 0.000000, bitrate: 2985989 kb/s\n  Stream #0:0: Video: rawvideo (I420 / 0x30323449), yuv420p(progressive), 1920x1080, 120 fps, 120 tbr, 120 tbn\n[out#0/mp4 @ 00000244e4639ac0] Codec AVOption b:a (set bitrate (in bits/s)) has not been used for any stream. The most likely reason is either wrong type (e.g. a video option with no video streams) or that it is a private option of some decoder which was not actually used for any stream.\nStream mapping:\n  Stream #0:0 -> #0:0 (rawvideo (native) -> h264 (libx264))\nPress [q] to stop, [?] for help\n[libx264 @ 00000244e463cb80] using cpu capabilities: MMX2 SSE2Fast SSSE3 SSE4.2 AVX FMA3 BMI2 AVX2\n[libx264 @ 00000244e463cb80] profile High, level 5.1, 4:2:0, 8-bit\n[libx264 @ 00000244e463cb80] 264 - core 165 r3222 b35605a - H.264/MPEG-4 AVC codec - Copyleft 2003-2025 - http://www.videolan.org/x264.html - options: cabac=1 ref=5 deblock=1:0:0 analyse=0x3:0x113 me=hex subme=8 psy=1 psy_rd=1.00:0.00 mixed_ref=1 me_range=16 chroma_me=1 trellis=2 8x8dct=1 cqm=0 deadzone=21,11 fast_pskip=1 chroma_qp_offset=-2 threads=18 lookahead_threads=3 sliced_threads=0 nr=0 decimate=1 interlaced=0 bluray_compat=0 constrained_intra=0 bframes=3 b_pyramid=2 b_adapt=1 b_bias=0 direct=3 weightb=1 open_gop=0 weightp=2 keyint=250 keyint_min=25 scenecut=40 intra_refresh=0 rc_lookahead=50 rc=cbr mbtree=1 bitrate=2500 ratetol=1.0 qcomp=0.60 qpmin=0 qpmax=69 qpstep=4 vbv_maxrate=2500 vbv_bufsize=2500 nal_hrd=none filler=0 ip_ratio=1.40 aq=1:1.00\nOutput #0, mp4, to 'C:\\Users\\Peter\\Desktop\\stuff\\MIUN\\quantitative_research\\video_compression\\compressed_videos\\UVG\\h264\\2.5\\YachtRide_1920x1080_120fps_420_8bit_YUV_h264.mp4':\n  Metadata:\n    encoder         : Lavf62.3.100\n  Stream #0:0: Video: h264 (avc1 / 0x31637661), yuv420p(tv, progressive), 1920x1080, q=2-31, 2500 kb/s, 120 fps, 15360 tbn\n    Metadata:\n      encoder         : Lavc62.11.100 libx264\n    Side data:\n      cpb: bitrate max/min/avg: 2500000/0/2500000 buffer size: 2500000 vbv_delay: N/A\nframe=    0 fps=0.0 q=0.0 size=       0KiB time=N/A bitrate=N/A speed=N/A elapsed=0:00:00.51    \nframe=    0 fps=0.0 q=0.0 size=       0KiB time=N/A bitrate=N/A speed=N/A elapsed=0:00:01.04    \nframe=   14 fps=8.9 q=48.0 size=       0KiB time=00:00:00.08 bitrate=   4.6kbits/s speed=0.053x elapsed=0:00:01.57    \nframe=   48 fps= 22 q=46.0 size=       0KiB time=00:00:00.35 bitrate=   1.1kbits/s speed=0.164x elapsed=0:00:02.13    \nframe=   76 fps= 28 q=46.0 size=       0KiB time=00:00:00.61 bitrate=   0.6kbits/s speed=0.226x elapsed=0:00:02.73    \nframe=  100 fps= 31 q=46.0 size=       0KiB time=00:00:00.81 bitrate=   0.5kbits/s speed=0.25x elapsed=0:00:03.26    \nframe=  128 fps= 34 q=46.0 size=     256KiB time=00:00:01.05 bitrate=1997.7kbits/s speed=0.278x elapsed=0:00:03.78    \nframe=  156 fps= 36 q=46.0 size=     256KiB time=00:00:01.28 bitrate=1634.4kbits/s speed=0.299x elapsed=0:00:04.29    \nframe=  184 fps= 38 q=47.0 size=     256KiB time=00:00:01.51 bitrate=1383.0kbits/s speed=0.314x elapsed=0:00:04.83    \nframe=  212 fps= 39 q=47.0 size=     512KiB time=00:00:01.75 bitrate=2397.0kbits/s speed=0.325x elapsed=0:00:05.38    \nframe=  233 fps= 39 q=47.0 size=     512KiB time=00:00:01.92 bitrate=2179.1kbits/s speed=0.326x elapsed=0:00:05.91    \nframe=  254 fps= 39 q=47.0 size=     512KiB time=00:00:02.06 bitrate=2029.7kbits/s speed=0.321x elapsed=0:00:06.43    \nframe=  282 fps= 40 q=47.0 size=     512KiB time=00:00:02.33 bitrate=1797.7kbits/s speed=0.329x elapsed=0:00:07.08    \nframe=  310 fps= 41 q=47.0 size=     768KiB time=00:00:02.56 bitrate=2451.4kbits/s speed=0.338x elapsed=0:00:07.60    \nframe=  338 fps= 42 q=47.0 size=     768KiB time=00:00:02.80 bitrate=2247.1kbits/s speed=0.345x elapsed=0:00:08.12    \nframe=  370 fps= 43 q=47.0 size=     768KiB time=00:00:03.03 bitrate=2074.2kbits/s speed=0.35x elapsed=0:00:08.66    \nframe=  394 fps= 43 q=47.0 size=    1024KiB time=00:00:03.26 bitrate=2568.1kbits/s speed=0.354x elapsed=0:00:09.22    \nframe=  422 fps= 43 q=47.0 size=    1024KiB time=00:00:03.50 bitrate=2396.9kbits/s speed=0.36x elapsed=0:00:09.73    \nframe=  450 fps= 44 q=47.0 size=    1024KiB time=00:00:03.71 bitrate=2257.1kbits/s speed=0.361x elapsed=0:00:10.29    \nframe=  478 fps= 44 q=47.0 size=    1024KiB time=00:00:03.93 bitrate=2132.8kbits/s speed=0.362x elapsed=0:00:10.85    \nframe=  486 fps= 43 q=47.0 size=    1024KiB time=00:00:04.01 bitrate=2088.5kbits/s speed=0.352x elapsed=0:00:11.42    \nframe=  516 fps= 43 q=47.0 size=    1280KiB time=00:00:04.28 bitrate=2448.1kbits/s speed=0.358x elapsed=0:00:11.95    \nframe=  559 fps= 45 q=47.0 size=    1280KiB time=00:00:04.60 bitrate=2275.5kbits/s speed=0.368x elapsed=0:00:12.53    \n[mp4 @ 00000244e4639bc0] Starting second pass: moving the moov atom to the beginning of the file\n[out#0/mp4 @ 00000244e4639ac0] video:1517KiB audio:0KiB subtitle:0KiB other streams:0KiB global headers:0KiB muxing overhead: 0.518660%\nframe=  600 fps= 46 q=-1.0 Lsize=    1525KiB time=00:00:04.98 bitrate=2507.4kbits/s speed=0.381x elapsed=0:00:13.07    \n[libx264 @ 00000244e463cb80] frame I:3     Avg QP:41.58  size: 16894\n[libx264 @ 00000244e463cb80] frame P:151   Avg QP:44.38  size:  4975\n[libx264 @ 00000244e463cb80] frame B:446   Avg QP:46.67  size:  1684\n[libx264 @ 00000244e463cb80] consecutive B-frames:  0.8%  0.0%  0.5% 98.7%\n[libx264 @ 00000244e463cb80] mb I  I16..4: 40.0% 58.6%  1.4%\n[libx264 @ 00000244e463cb80] mb P  I16..4:  1.8%  1.1%  0.0%  P16..4: 23.0%  1.3%  1.4%  0.0%  0.0%    skip:71.4%\n[libx264 @ 00000244e463cb80] mb B  I16..4:  0.0%  0.0%  0.0%  B16..8: 22.5%  0.2%  0.0%  direct: 0.0%  skip:77.3%  L0:30.5% L1:69.4% BI: 0.1%\n[libx264 @ 00000244e463cb80] 8x8 transform intra:46.6% inter:97.4%\n[libx264 @ 00000244e463cb80] direct mvs  spatial:97.8% temporal:2.2%\n[libx264 @ 00000244e463cb80] coded y,uvDC,uvAC intra: 11.1% 16.7% 1.3% inter: 0.8% 0.7% 0.0%\n[libx264 @ 00000244e463cb80] i16 v,h,dc,p: 17% 60%  5% 18%\n[libx264 @ 00000244e463cb80] i8 v,h,dc,ddl,ddr,vr,hd,vl,hu:  9% 15% 34%  4%  8%  4% 11%  3% 12%\n[libx264 @ 00000244e463cb80] i4 v,h,dc,ddl,ddr,vr,hd,vl,hu:  6% 22% 17%  5% 10%  8% 11%  6% 15%\n[libx264 @ 00000244e463cb80] i8c dc,h,v,p: 71% 25%  3%  1%\n[libx264 @ 00000244e463cb80] Weighted P-Frames: Y:0.0% UV:0.0%\n[libx264 @ 00000244e463cb80] ref P L0: 56.8%  3.8% 23.9%  6.7%  8.8%\n[libx264 @ 00000244e463cb80] ref B L0: 82.4% 12.9%  3.5%  1.1%\n[libx264 @ 00000244e463cb80] ref B L1: 94.5%  5.5%\n[libx264 @ 00000244e463cb80] kb/s:2484.88\n",
  "seconds": 13.250332832336426,
  "probe_out": {}
}